# xmcd CD database file
#
# Track frame offsets:
#	150
#	19367
#	31741
#	48843
#	61742
#	81243
#	93842
#	107859
#	127361
#	146483
#	165320
#	183162
#	203938
#	215803
#	231852
#	243797
#	253141
#	272625
#	282466
#
# Disc length: 4010 seconds
#
# Revision: 3
# Processed by: cddbd v1.5.2PL0 Copyright (c) Steve Scherf et al.
# Submitted via: CDex 1.70beta1
#
DISCID=120fa813
DTITLE=Ed Sperber - Formationen
DYEAR=1900
DGENRE=Jazz
TTITLE0=What a  wonderfull World
TTITLE1=What a difference a day makes
TTITLE2=Just the way you are
TTITLE3=Always look on the bright side of life
TTITLE4=Heal the world
TTITLE5=Venus
TTITLE6=New York New York
TTITLE7=Szomoru Vasarnap - Schwarze Augen
TTITLE8=Glenn Miller Medley
TTITLE9=Joanna
TTITLE10=Just a Gigolo
TTITLE11=Tell it like it is
TTITLE12=Don t fight it
TTITLE13=Remember when
TTITLE14=Everybody needs somebody to love
TTITLE15=High Society
TTITLE16=Alexanders Ragtime Band
TTITLE17=Dancing in the dark
TTITLE18=Come fly with me
EXTD=
EXTT0=
EXTT1=
EXTT2=
EXTT3=
EXTT4=
EXTT5=
EXTT6=
EXTT7=
EXTT8=
EXTT9=
EXTT10=
EXTT11=
EXTT12=
EXTT13=
EXTT14=
EXTT15=
EXTT16=
EXTT17=
EXTT18=
PLAYORDER=
